<?xml version="1.0" encoding="utf-8"?><svg xmlns="http://www.w3.org/2000/svg" xmlns:xlink="http://www.w3.org/1999/xlink" width="1920" height="938" preserveAspectRatio="xMidYMid" viewBox="0 0 1920 938" style="z-index:1;margin-right:-2px;display:block;background-repeat-y:initial;background-repeat-x:initial;background-color:rgb(241, 242, 243);animation-play-state:paused" ><g transform="translate(960,469) scale(1,1) translate(-960,-469)" style="transform:matrix(1, 0, 0, 1, 0, 0);animation-play-state:paused" ><circle cx="0" cy="0" r="2136.8771607184162" fill="#5699d2" fill-opacity="0.4" transform="matrix(0.9950000047683716,0,0,0.9950000047683716,0,0)" style="transform:matrix(0.995, 0, 0, 0.995, 0, 0);animation-play-state:paused" ></circle>
<circle cx="0" cy="0" r="1942.6156006531055" fill="#5190c9" fill-opacity="0.4" transform="matrix(0.9957138299942017,0,0,0.9957138299942017,0,0)" style="transform:matrix(0.995714, 0, 0, 0.995714, 0, 0);animation-play-state:paused" ></circle>
<circle cx="0" cy="0" r="1748.3540405877952" fill="#4b88c0" fill-opacity="0.4" transform="matrix(0.99781733751297,0,0,0.99781733751297,0,0)" style="transform:matrix(0.997817, 0, 0, 0.997817, 0, 0);animation-play-state:paused" ></circle>
<circle cx="0" cy="0" r="1554.0924805224845" fill="#467fb7" fill-opacity="0.4" transform="matrix(1.0007541179656982,0,0,1.0007541179656982,0,0)" style="transform:matrix(1.00075, 0, 0, 1.00075, 0, 0);animation-play-state:paused" ></circle>
<circle cx="0" cy="0" r="1359.830920457174" fill="#4177af" fill-opacity="0.4" transform="matrix(1.0033912658691406,0,0,1.0033912658691406,0,0)" style="transform:matrix(1.00339, 0, 0, 1.00339, 0, 0);animation-play-state:paused" ></circle>
<circle cx="0" cy="0" r="1165.5693603918633" fill="#3c6ea6" fill-opacity="0.4" transform="matrix(1.004823923110962,0,0,1.004823923110962,0,0)" style="transform:matrix(1.00482, 0, 0, 1.00482, 0, 0);animation-play-state:paused" ></circle>
<circle cx="0" cy="0" r="971.3078003265528" fill="#37669d" fill-opacity="0.4" transform="matrix(1.004823923110962,0,0,1.004823923110962,0,0)" style="transform:matrix(1.00482, 0, 0, 1.00482, 0, 0);animation-play-state:paused" ></circle>
<circle cx="0" cy="0" r="777.0462402612422" fill="#325e94" fill-opacity="0.4" transform="matrix(1.0033912658691406,0,0,1.0033912658691406,0,0)" style="transform:matrix(1.00339, 0, 0, 1.00339, 0, 0);animation-play-state:paused" ></circle>
<circle cx="0" cy="0" r="582.7846801959316" fill="#2c568c" fill-opacity="0.4" transform="matrix(1.0007541179656982,0,0,1.0007541179656982,0,0)" style="transform:matrix(1.00075, 0, 0, 1.00075, 0, 0);animation-play-state:paused" ></circle>
<circle cx="0" cy="0" r="388.5231201306211" fill="#274e83" fill-opacity="0.4" transform="matrix(0.9978172779083252,0,0,0.9978172779083252,0,0)" style="transform:matrix(0.997817, 0, 0, 0.997817, 0, 0);animation-play-state:paused" ></circle>
<circle cx="0" cy="0" r="194.26156006531056" fill="#22477b" fill-opacity="0.4" transform="matrix(0.9957138299942017,0,0,0.9957138299942017,0,0)" style="transform:matrix(0.995714, 0, 0, 0.995714, 0, 0);animation-play-state:paused" ></circle>
<circle cx="0" cy="0" r="0" fill="#1d3f72" fill-opacity="0.4" transform="matrix(0.9950000047683716,0,0,0.9950000047683716,0,0)" style="transform:matrix(0.995, 0, 0, 0.995, 0, 0);animation-play-state:paused" ></circle></g></svg>